<svg width="3689" height="512" viewBox="0 0 3689 512" fill="none" xmlns="http://www.w3.org/2000/svg">
<circle cx="256" cy="256" r="256" fill="url(#paint0_linear_1325_5)"/>
<path fill-rule="evenodd" clip-rule="evenodd" d="M106 270.55V180.85C106 139.45 139.6 106 181 106H331C372.4 106 406 139.45 406 180.85V285.55C406 326.8 372.4 360.25 331 360.25H308.5C303.85 360.25 299.35 362.5 296.5 366.25L274 396.1C264.1 409.3 247.9 409.3 238 396.1L215.5 366.25C213.1 362.95 207.7 360.25 203.5 360.25H181C139.6 360.25 106 326.8 106 285.55V270.55ZM331 207.25H181C174.85 207.25 169.75 202.15 169.75 196C169.75 189.85 174.85 184.75 181 184.75H331C337.15 184.75 342.25 189.85 342.25 196C342.25 202.15 337.15 207.25 331 207.25ZM181 282.25H271C277.15 282.25 282.25 277.15 282.25 271C282.25 264.85 277.15 259.75 271 259.75H181C174.85 259.75 169.75 264.85 169.75 271C169.75 277.15 174.85 282.25 181 282.25Z" fill="white"/>
<path d="M767.96 342C767.96 356.44 766.187 367.967 762.64 376.58C759.093 384.94 754.153 390.767 747.82 394.06C741.74 397.353 733.633 399 723.5 399C708.553 399 697.66 395.073 690.82 387.22C684.233 379.113 680.813 364.927 680.56 344.66L679.8 204.44H647.5C631.54 204.44 619.507 201.907 611.4 196.84C603.547 191.773 599.62 182.78 599.62 169.86C599.62 162.007 601.14 155.8 604.18 151.24C607.473 146.68 612.287 143.513 618.62 141.74C624.953 139.713 633.44 138.7 644.08 138.7H806.72C820.907 138.7 831.167 141.233 837.5 146.3C843.833 151.367 847 160.107 847 172.52C847 180.88 845.1 187.467 841.3 192.28C837.753 196.84 832.94 200.007 826.86 201.78C820.78 203.553 812.927 204.44 803.3 204.44H767.96V342ZM974.579 200.64C963.686 200.64 955.579 203.807 950.259 210.14C945.192 216.473 942.659 227.747 942.659 243.96V288.8H1005.74V243.2C1005.74 232.56 1004.47 224.073 1001.94 217.74C999.406 211.153 995.859 206.72 991.299 204.44C986.992 201.907 981.419 200.64 974.579 200.64ZM1005.74 341.24H942.659V361.38C942.659 374.3 939.239 383.8 932.399 389.88C925.559 395.96 913.779 399 897.059 399C889.966 399 884.139 397.987 879.579 395.96C875.019 393.933 870.966 390.513 867.419 385.7C864.126 380.887 861.592 373.92 859.819 364.8C858.299 355.427 857.032 344.28 856.019 331.36C855.259 318.187 854.879 301.593 854.879 281.58C854.879 264.1 856.652 248.14 860.199 233.7C863.999 219.007 868.939 206.593 875.019 196.46C881.352 186.327 888.446 177.46 896.299 169.86C904.152 162.007 912.639 155.927 921.759 151.62C931.132 147.313 940.126 144.147 948.739 142.12C957.606 139.84 966.472 138.7 975.339 138.7C985.979 138.7 996.492 140.22 1006.88 143.26C1017.27 146.047 1027.78 150.987 1038.42 158.08C1049.06 165.173 1058.31 174.04 1066.16 184.68C1074.27 195.067 1080.85 208.62 1085.92 225.34C1090.99 242.06 1093.52 260.807 1093.52 281.58C1093.52 315.02 1092.25 339.847 1089.72 356.06C1087.44 372.02 1083.39 383.167 1077.56 389.5C1071.99 395.833 1063.25 399 1051.34 399C1034.62 399 1022.84 395.96 1016 389.88C1009.16 383.8 1005.74 374.3 1005.74 361.38V341.24ZM1245.11 200.64C1234.21 200.64 1226.11 203.807 1220.79 210.14C1215.72 216.473 1213.19 227.747 1213.19 243.96V288.8H1276.27V243.2C1276.27 232.56 1275 224.073 1272.47 217.74C1269.93 211.153 1266.39 206.72 1261.83 204.44C1257.52 201.907 1251.95 200.64 1245.11 200.64ZM1276.27 341.24H1213.19V361.38C1213.19 374.3 1209.77 383.8 1202.93 389.88C1196.09 395.96 1184.31 399 1167.59 399C1160.49 399 1154.67 397.987 1150.11 395.96C1145.55 393.933 1141.49 390.513 1137.95 385.7C1134.65 380.887 1132.12 373.92 1130.35 364.8C1128.83 355.427 1127.56 344.28 1126.55 331.36C1125.79 318.187 1125.41 301.593 1125.41 281.58C1125.41 264.1 1127.18 248.14 1130.73 233.7C1134.53 219.007 1139.47 206.593 1145.55 196.46C1151.88 186.327 1158.97 177.46 1166.83 169.86C1174.68 162.007 1183.17 155.927 1192.29 151.62C1201.66 147.313 1210.65 144.147 1219.27 142.12C1228.13 139.84 1237 138.7 1245.87 138.7C1256.51 138.7 1267.02 140.22 1277.41 143.26C1287.79 146.047 1298.31 150.987 1308.95 158.08C1319.59 165.173 1328.83 174.04 1336.69 184.68C1344.79 195.067 1351.38 208.62 1356.45 225.34C1361.51 242.06 1364.05 260.807 1364.05 281.58C1364.05 315.02 1362.78 339.847 1360.25 356.06C1357.97 372.02 1353.91 383.167 1348.09 389.5C1342.51 395.833 1333.77 399 1321.87 399C1305.15 399 1293.37 395.96 1286.53 389.88C1279.69 383.8 1276.27 374.3 1276.27 361.38V341.24ZM1599.79 337.44C1607.39 337.44 1613.73 338.073 1618.79 339.34C1623.86 340.353 1627.79 342.253 1630.57 345.04C1633.61 347.573 1635.64 350.613 1636.65 354.16C1637.92 357.707 1638.55 362.14 1638.55 367.46C1638.55 380.38 1634.5 388.867 1626.39 392.92C1618.29 396.973 1604.23 399 1584.21 399H1441.71C1434.62 399 1427.4 396.973 1420.05 392.92C1412.96 388.613 1407.01 382.787 1402.19 375.44C1397.38 367.84 1394.97 359.86 1394.97 351.5C1394.97 343.9 1395.35 337.693 1396.11 332.88C1397.13 327.813 1399.28 322.62 1402.57 317.3C1405.87 311.98 1408.78 307.8 1411.31 304.76C1414.1 301.467 1419.04 296.147 1426.13 288.8L1523.03 200.64H1445.89C1428.92 200.64 1416.63 198.233 1409.03 193.42C1401.43 188.353 1397.63 179.993 1397.63 168.34C1397.63 157.447 1400.67 149.847 1406.75 145.54C1413.09 140.98 1422.33 138.7 1434.49 138.7H1589.91C1597.51 138.7 1604.23 140.093 1610.05 142.88C1615.88 145.413 1620.31 148.833 1623.35 153.14C1626.39 157.193 1628.67 161.247 1630.19 165.3C1631.71 169.353 1632.47 173.153 1632.47 176.7C1632.47 181.26 1632.35 185.313 1632.09 188.86C1631.84 192.407 1631.08 195.827 1629.81 199.12C1628.8 202.16 1628.04 204.567 1627.53 206.34C1627.03 208.113 1625.51 210.52 1622.97 213.56C1620.69 216.6 1619.05 218.627 1618.03 219.64C1617.02 220.653 1614.61 223.187 1610.81 227.24C1607.01 231.04 1604.35 233.7 1602.83 235.22L1491.87 337.44H1599.79ZM1788.39 200.64C1777.49 200.64 1769.39 203.807 1764.07 210.14C1759 216.473 1756.47 227.747 1756.47 243.96V288.8H1819.55V243.2C1819.55 232.56 1818.28 224.073 1815.75 217.74C1813.21 211.153 1809.67 206.72 1805.11 204.44C1800.8 201.907 1795.23 200.64 1788.39 200.64ZM1819.55 341.24H1756.47V361.38C1756.47 374.3 1753.05 383.8 1746.21 389.88C1739.37 395.96 1727.59 399 1710.87 399C1703.77 399 1697.95 397.987 1693.39 395.96C1688.83 393.933 1684.77 390.513 1681.23 385.7C1677.93 380.887 1675.4 373.92 1673.63 364.8C1672.11 355.427 1670.84 344.28 1669.83 331.36C1669.07 318.187 1668.69 301.593 1668.69 281.58C1668.69 264.1 1670.46 248.14 1674.01 233.7C1677.81 219.007 1682.75 206.593 1688.83 196.46C1695.16 186.327 1702.25 177.46 1710.11 169.86C1717.96 162.007 1726.45 155.927 1735.57 151.62C1744.94 147.313 1753.93 144.147 1762.55 142.12C1771.41 139.84 1780.28 138.7 1789.15 138.7C1799.79 138.7 1810.3 140.22 1820.69 143.26C1831.07 146.047 1841.59 150.987 1852.23 158.08C1862.87 165.173 1872.11 174.04 1879.97 184.68C1888.07 195.067 1894.66 208.62 1899.73 225.34C1904.79 242.06 1907.33 260.807 1907.33 281.58C1907.33 315.02 1906.06 339.847 1903.53 356.06C1901.25 372.02 1897.19 383.167 1891.37 389.5C1885.79 395.833 1877.05 399 1865.15 399C1848.43 399 1836.65 395.96 1829.81 389.88C1822.97 383.8 1819.55 374.3 1819.55 361.38V341.24ZM2226.32 273.98C2239.24 275.5 2251.02 282.087 2261.66 293.74C2272.3 305.14 2277.62 319.833 2277.62 337.82C2277.62 355.3 2276.35 368.347 2273.82 376.96C2271.28 385.32 2266.98 391.147 2260.9 394.44C2254.82 397.48 2245.57 399 2233.16 399C2223.28 399 2215.04 397.607 2208.46 394.82C2202.12 392.033 2197.44 387.98 2194.4 382.66C2191.36 377.087 2189.84 369.993 2189.84 361.38C2189.84 350.233 2189.33 340.987 2188.32 333.64C2187.56 326.04 2186.42 320.087 2184.9 315.78C2183.63 311.22 2181.6 307.8 2178.82 305.52C2176.03 303.24 2173.24 301.847 2170.46 301.34C2167.92 300.58 2164.38 300.2 2159.82 300.2H2139.68V342.38C2139.68 362.647 2135.75 377.213 2127.9 386.08C2120.04 394.693 2108.52 399 2093.32 399C2078.62 399 2067.73 394.947 2060.64 386.84C2053.8 378.48 2050.38 364.547 2050.38 345.04V186.58C2050.38 170.62 2053.29 158.713 2059.12 150.86C2065.2 142.753 2074.95 138.7 2088.38 138.7C2096.23 138.7 2102.69 139.207 2107.76 140.22C2113.08 141.233 2118.14 143.133 2122.96 145.92C2128.02 148.453 2131.7 152.633 2133.98 158.46C2136.51 164.033 2137.78 171.253 2137.78 180.12C2137.78 187.973 2137.65 196.84 2137.4 206.72C2137.4 216.347 2137.4 223.187 2137.4 227.24C2137.4 230.533 2138.16 233.32 2139.68 235.6C2141.45 237.88 2143.98 239.78 2147.28 241.3C2150.82 242.567 2155.13 243.2 2160.2 243.2C2171.09 243.2 2178.31 238.893 2181.86 230.28C2185.66 221.667 2187.56 204.06 2187.56 177.46C2187.56 164.287 2191.1 154.533 2198.2 148.2C2205.29 141.867 2216.69 138.7 2232.4 138.7C2249.37 138.7 2260.77 141.993 2266.6 148.58C2272.42 155.167 2275.34 166.947 2275.34 183.92C2275.34 211.787 2270.4 233.447 2260.52 248.9C2250.89 264.1 2239.49 272.46 2226.32 273.98ZM2573.9 342C2573.9 362.52 2570.23 377.213 2562.88 386.08C2555.54 394.693 2544.39 399 2529.44 399C2514.75 399 2503.98 395.073 2497.14 387.22C2490.3 379.113 2486.88 364.927 2486.88 344.66L2486.5 301.72H2408.98V342C2408.98 362.773 2405.44 377.467 2398.34 386.08C2391.25 394.693 2379.98 399 2364.52 399C2349.83 399 2339.06 395.073 2332.22 387.22C2325.38 379.113 2321.96 364.927 2321.96 344.66L2320.82 184.3C2320.82 168.593 2324.75 157.067 2332.6 149.72C2340.71 142.373 2351.35 138.7 2364.52 138.7C2379.72 138.7 2390.87 141.487 2397.96 147.06C2405.31 152.633 2408.98 163.907 2408.98 180.88V244.72H2486.12V184.3C2486.12 173.66 2488.02 164.92 2491.82 158.08C2495.88 150.987 2500.94 146.047 2507.02 143.26C2513.36 140.22 2520.83 138.7 2529.44 138.7C2544.14 138.7 2555.16 141.487 2562.5 147.06C2570.1 152.633 2573.9 163.907 2573.9 180.88V342ZM2731.71 200.64C2720.81 200.64 2712.71 203.807 2707.39 210.14C2702.32 216.473 2699.79 227.747 2699.79 243.96V288.8H2762.87V243.2C2762.87 232.56 2761.6 224.073 2759.07 217.74C2756.53 211.153 2752.99 206.72 2748.43 204.44C2744.12 201.907 2738.55 200.64 2731.71 200.64ZM2762.87 341.24H2699.79V361.38C2699.79 374.3 2696.37 383.8 2689.53 389.88C2682.69 395.96 2670.91 399 2654.19 399C2647.09 399 2641.27 397.987 2636.71 395.96C2632.15 393.933 2628.09 390.513 2624.55 385.7C2621.25 380.887 2618.72 373.92 2616.95 364.8C2615.43 355.427 2614.16 344.28 2613.15 331.36C2612.39 318.187 2612.01 301.593 2612.01 281.58C2612.01 264.1 2613.78 248.14 2617.33 233.7C2621.13 219.007 2626.07 206.593 2632.15 196.46C2638.48 186.327 2645.57 177.46 2653.43 169.86C2661.28 162.007 2669.77 155.927 2678.89 151.62C2688.26 147.313 2697.25 144.147 2705.87 142.12C2714.73 139.84 2723.6 138.7 2732.47 138.7C2743.11 138.7 2753.62 140.22 2764.01 143.26C2774.39 146.047 2784.91 150.987 2795.55 158.08C2806.19 165.173 2815.43 174.04 2823.29 184.68C2831.39 195.067 2837.98 208.62 2843.05 225.34C2848.11 242.06 2850.65 260.807 2850.65 281.58C2850.65 315.02 2849.38 339.847 2846.85 356.06C2844.57 372.02 2840.51 383.167 2834.69 389.5C2829.11 395.833 2820.37 399 2808.47 399C2791.75 399 2779.97 395.96 2773.13 389.88C2766.29 383.8 2762.87 374.3 2762.87 361.38V341.24ZM3035.3 212.04C3035.3 201.4 3031.12 194.18 3022.76 190.38C3014.65 186.327 3000.97 184.3 2981.72 184.3V242.44C2993.62 242.44 3003.25 241.553 3010.6 239.78C3018.2 238.007 3024.15 234.967 3028.46 230.66C3033.02 226.1 3035.3 219.893 3035.3 212.04ZM3040.24 313.5C3040.24 305.14 3038.08 298.68 3033.78 294.12C3029.47 289.56 3023.26 286.393 3015.16 284.62C3007.05 282.593 2995.9 281.58 2981.72 281.58V347.32C3001.48 347.32 3016.17 344.913 3025.8 340.1C3035.42 335.033 3040.24 326.167 3040.24 313.5ZM3086.98 263.72C3110.54 277.653 3122.32 296.273 3122.32 319.58C3122.32 329.713 3120.29 339.467 3116.24 348.84C3112.44 357.96 3106.61 366.32 3098.76 373.92C3091.16 381.52 3081.02 387.6 3068.36 392.16C3055.69 396.467 3041.38 398.62 3025.42 398.62H2937.26C2921.8 398.62 2910.66 394.693 2903.82 386.84C2897.23 378.987 2893.94 364.927 2893.94 344.66V183.92C2893.94 175.307 2895.46 167.707 2898.5 161.12C2901.54 154.533 2906.35 149.213 2912.94 145.16C2919.78 141.107 2927.88 139.08 2937.26 139.08H3024.28C3049.61 139.333 3070.64 146.3 3087.36 159.98C3104.33 173.407 3112.82 190.76 3112.82 212.04C3112.82 218.88 3112.18 224.96 3110.92 230.28C3109.9 235.347 3108.26 239.907 3105.98 243.96C3103.7 248.013 3101.04 251.56 3098 254.6C3094.96 257.64 3091.28 260.68 3086.98 263.72ZM3280.93 200.64C3270.03 200.64 3261.93 203.807 3256.61 210.14C3251.54 216.473 3249.01 227.747 3249.01 243.96V288.8H3312.09V243.2C3312.09 232.56 3310.82 224.073 3308.29 217.74C3305.75 211.153 3302.21 206.72 3297.65 204.44C3293.34 201.907 3287.77 200.64 3280.93 200.64ZM3312.09 341.24H3249.01V361.38C3249.01 374.3 3245.59 383.8 3238.75 389.88C3231.91 395.96 3220.13 399 3203.41 399C3196.31 399 3190.49 397.987 3185.93 395.96C3181.37 393.933 3177.31 390.513 3173.77 385.7C3170.47 380.887 3167.94 373.92 3166.17 364.8C3164.65 355.427 3163.38 344.28 3162.37 331.36C3161.61 318.187 3161.23 301.593 3161.23 281.58C3161.23 264.1 3163 248.14 3166.55 233.7C3170.35 219.007 3175.29 206.593 3181.37 196.46C3187.7 186.327 3194.79 177.46 3202.65 169.86C3210.5 162.007 3218.99 155.927 3228.11 151.62C3237.48 147.313 3246.47 144.147 3255.09 142.12C3263.95 139.84 3272.82 138.7 3281.69 138.7C3292.33 138.7 3302.84 140.22 3313.23 143.26C3323.61 146.047 3334.13 150.987 3344.77 158.08C3355.41 165.173 3364.65 174.04 3372.51 184.68C3380.61 195.067 3387.2 208.62 3392.27 225.34C3397.33 242.06 3399.87 260.807 3399.87 281.58C3399.87 315.02 3398.6 339.847 3396.07 356.06C3393.79 372.02 3389.73 383.167 3383.91 389.5C3378.33 395.833 3369.59 399 3357.69 399C3340.97 399 3329.19 395.96 3322.35 389.88C3315.51 383.8 3312.09 374.3 3312.09 361.38V341.24ZM3584.13 214.32C3584.13 202.16 3579.7 193.8 3570.83 189.24C3561.97 184.68 3547.02 182.4 3525.99 182.4V248.14C3545.75 248.14 3560.32 245.733 3569.69 240.92C3579.32 235.853 3584.13 226.987 3584.13 214.32ZM3525.99 342C3525.99 380 3511.17 399 3481.53 399C3466.59 399 3455.57 395.073 3448.47 387.22C3441.63 379.113 3438.21 364.927 3438.21 344.66V184.3C3438.21 169.607 3442.14 158.46 3449.99 150.86C3458.1 143.007 3468.61 139.08 3481.53 139.08H3561.33C3592.49 139.08 3617.7 146.427 3636.95 161.12C3656.21 175.56 3665.83 194.18 3665.83 216.98C3665.83 234.207 3662.16 247.76 3654.81 257.64C3647.72 267.267 3636.19 274.36 3620.23 278.92C3632.39 279.68 3643.67 285.633 3654.05 296.78C3664.44 307.673 3669.63 321.353 3669.63 337.82C3669.63 354.54 3667.99 367.46 3664.69 376.58C3661.65 385.447 3657.22 391.4 3651.39 394.44C3645.57 397.48 3637.33 399 3626.69 399C3611.75 399 3600.73 395.96 3593.63 389.88C3586.79 383.547 3583.37 374.047 3583.37 361.38C3583.37 345.673 3581.85 333.64 3578.81 325.28C3575.77 316.667 3571.85 311.093 3567.03 308.56C3562.22 306.027 3555.51 304.76 3546.89 304.76L3525.99 305.14V342Z" fill="white"/>
<defs>
<linearGradient id="paint0_linear_1325_5" x1="0" y1="0" x2="512" y2="512" gradientUnits="userSpaceOnUse">
<stop stop-color="#EF4444"/>
<stop offset="0.390625" stop-color="#DB2777"/>
<stop offset="0.947917" stop-color="#8B5CF6"/>
</linearGradient>
</defs>
</svg>
