<svg width="461" height="172" viewBox="0 0 461 172" fill="none" xmlns="http://www.w3.org/2000/svg">
<path d="M93.7632 0.768135C101.614 0.768135 105.539 3.2428 105.539 8.19213C105.539 10.5815 104.729 12.4375 103.107 13.7601C101.486 15.0401 99.0965 15.6801 95.9392 15.6801H81.9232V69.3761C81.9232 77.1841 78.4245 81.0881 71.4272 81.0881C64.4725 81.0881 60.9952 77.1841 60.9952 69.3761V15.6801H49.2192C45.4218 15.6801 42.4992 15.0401 40.4512 13.7601C38.4458 12.4375 37.4432 10.5815 37.4432 8.19213C37.4432 5.76013 38.4458 3.92547 40.4512 2.68813C42.4992 1.40813 45.4218 0.768135 49.2192 0.768135H93.7632Z" fill="white"/>
<path d="M124.949 81.2161C122.091 81.2161 119.787 80.4268 118.037 78.8481C116.331 77.2268 115.477 74.9868 115.477 72.1281C115.477 71.4881 115.52 70.8481 115.605 70.2081C115.691 69.5681 115.84 68.9068 116.053 68.2241L133.013 12.4801C133.995 9.02413 135.765 6.1868 138.325 3.96813C140.928 1.74947 143.851 0.640137 147.093 0.640137H154.389C157.632 0.640137 160.533 1.74947 163.093 3.96813C165.653 6.1868 167.424 9.02413 168.405 12.4801L185.365 68.2241C185.579 68.9068 185.728 69.5681 185.813 70.2081C185.899 70.8481 185.941 71.4881 185.941 72.1281C185.941 75.0295 185.067 77.2695 183.317 78.8481C181.611 80.4268 179.328 81.2161 176.469 81.2161C172.971 81.2161 170.368 80.3415 168.661 78.5921C166.997 76.8428 165.76 74.2188 164.949 70.7201L162.581 62.5281H138.837L136.469 70.7201C135.659 74.2188 134.4 76.8428 132.693 78.5921C131.029 80.3415 128.448 81.2161 124.949 81.2161ZM142.357 47.6161H159.125L151.893 20.3521C151.68 19.3708 151.467 18.4535 151.253 17.6001C151.083 16.7468 150.912 15.9788 150.741 15.2961C150.571 15.9788 150.379 16.7468 150.165 17.6001C149.952 18.4535 149.739 19.3708 149.525 20.3521L142.357 47.6161Z" fill="white"/>
<path d="M204.199 81.2161C201.341 81.2161 199.037 80.4268 197.287 78.8481C195.581 77.2268 194.727 74.9868 194.727 72.1281C194.727 71.4881 194.77 70.8481 194.855 70.2081C194.941 69.5681 195.09 68.9068 195.303 68.2241L212.263 12.4801C213.245 9.02413 215.015 6.1868 217.575 3.96813C220.178 1.74947 223.101 0.640137 226.343 0.640137H233.639C236.882 0.640137 239.783 1.74947 242.343 3.96813C244.903 6.1868 246.674 9.02413 247.655 12.4801L264.615 68.2241C264.829 68.9068 264.978 69.5681 265.063 70.2081C265.149 70.8481 265.191 71.4881 265.191 72.1281C265.191 75.0295 264.317 77.2695 262.567 78.8481C260.861 80.4268 258.578 81.2161 255.719 81.2161C252.221 81.2161 249.618 80.3415 247.911 78.5921C246.247 76.8428 245.01 74.2188 244.199 70.7201L241.831 62.5281H218.087L215.719 70.7201C214.909 74.2188 213.65 76.8428 211.943 78.5921C210.279 80.3415 207.698 81.2161 204.199 81.2161ZM221.607 47.6161H238.375L231.143 20.3521C230.93 19.3708 230.717 18.4535 230.503 17.6001C230.333 16.7468 230.162 15.9788 229.991 15.2961C229.821 15.9788 229.629 16.7468 229.415 17.6001C229.202 18.4535 228.989 19.3708 228.775 20.3521L221.607 47.6161Z" fill="white"/>
<path d="M301.561 65.0881H324.793C328.633 65.0881 331.556 65.7495 333.561 67.0721C335.609 68.3521 336.633 70.1868 336.633 72.5761C336.633 74.9655 335.609 76.8001 333.561 78.0801C331.556 79.3601 328.633 80.0001 324.793 80.0001H291.961C288.121 80.0001 285.199 79.0828 283.193 77.2481C281.188 75.3708 280.185 72.8321 280.185 69.6321C280.185 67.4561 280.527 65.6641 281.209 64.2561C281.935 62.8481 283.086 60.9495 284.665 58.5601L313.721 15.6801H292.921C289.081 15.6801 286.159 15.0401 284.153 13.7601C282.148 12.4375 281.145 10.5815 281.145 8.19213C281.145 5.76013 282.148 3.92547 284.153 2.68813C286.159 1.40813 289.081 0.768135 292.921 0.768135H323.577C327.375 0.768135 330.276 1.72813 332.281 3.64813C334.287 5.52547 335.289 8.1068 335.289 11.3921C335.289 13.2268 334.948 14.8908 334.265 16.3841C333.625 17.8775 332.473 19.8188 330.809 22.2081L301.561 65.0881Z" fill="white"/>
<path d="M362.699 81.2161C359.84 81.2161 357.537 80.4268 355.787 78.8481C354.081 77.2268 353.227 74.9868 353.227 72.1281C353.227 71.4881 353.27 70.8481 353.355 70.2081C353.44 69.5681 353.59 68.9068 353.803 68.2241L370.763 12.4801C371.745 9.02413 373.515 6.1868 376.075 3.96813C378.678 1.74947 381.601 0.640137 384.843 0.640137H392.139C395.382 0.640137 398.283 1.74947 400.843 3.96813C403.403 6.1868 405.174 9.02413 406.155 12.4801L423.115 68.2241C423.329 68.9068 423.478 69.5681 423.563 70.2081C423.649 70.8481 423.691 71.4881 423.691 72.1281C423.691 75.0295 422.817 77.2695 421.067 78.8481C419.361 80.4268 417.078 81.2161 414.219 81.2161C410.721 81.2161 408.118 80.3415 406.411 78.5921C404.747 76.8428 403.51 74.2188 402.699 70.7201L400.331 62.5281H376.587L374.219 70.7201C373.409 74.2188 372.15 76.8428 370.443 78.5921C368.779 80.3415 366.198 81.2161 362.699 81.2161ZM380.107 47.6161H396.875L389.643 20.3521C389.43 19.3708 389.217 18.4535 389.003 17.6001C388.833 16.7468 388.662 15.9788 388.491 15.2961C388.321 15.9788 388.128 16.7468 387.915 17.6001C387.702 18.4535 387.489 19.3708 387.275 20.3521L380.107 47.6161Z" fill="white"/>
<path d="M11.3222 171.216C4.32484 171.216 0.826172 167.312 0.826172 159.504V101.904C0.826172 98.0641 1.72217 95.1415 3.51417 93.1361C5.34884 91.1308 7.95151 90.1281 11.3222 90.1281C18.3195 90.1281 21.8182 94.0535 21.8182 101.904V122.896L41.4662 98.3201C43.4288 95.7601 45.3702 93.7548 47.2902 92.3041C49.2102 90.8535 51.6635 90.1281 54.6502 90.1281C57.5942 90.1281 59.7702 90.8108 61.1782 92.1761C62.6288 93.4988 63.3542 95.3335 63.3542 97.6801C63.3542 99.0455 63.1195 100.261 62.6502 101.328C62.1808 102.395 61.4555 103.504 60.4742 104.656L44.9222 122.832C43.1728 124.923 41.7222 126.587 40.5702 127.824C39.4608 129.019 38.6502 129.787 38.1382 130.128C38.6502 130.512 39.4822 131.365 40.6342 132.688C41.7862 133.968 43.3435 135.824 45.3062 138.256L60.4102 156.176C61.4768 157.499 62.2022 158.715 62.5862 159.824C62.9702 160.891 63.1622 162.149 63.1622 163.6C63.1622 165.861 62.3088 167.696 60.6022 169.104C58.9382 170.512 56.6768 171.216 53.8182 171.216C50.8742 171.216 48.5275 170.597 46.7782 169.36C45.0288 168.123 43.2368 166.203 41.4022 163.6L21.8182 138.064V159.504C21.8182 167.312 18.3195 171.216 11.3222 171.216Z" fill="white"/>
<path d="M123.084 101.968C123.084 94.0748 126.583 90.1281 133.58 90.1281C140.578 90.1281 144.076 94.0748 144.076 101.968V159.376C144.076 167.184 140.578 171.088 133.58 171.088C126.583 171.088 123.084 167.184 123.084 159.376V137.296H99.0202V159.376C99.0202 167.184 95.5215 171.088 88.5242 171.088C81.5268 171.088 78.0282 167.184 78.0282 159.376V101.968C78.0282 98.1281 78.9242 95.2055 80.7162 93.2001C82.5508 91.1521 85.1535 90.1281 88.5242 90.1281C95.5215 90.1281 99.0202 94.0748 99.0202 101.968V122.448H123.084V101.968Z" fill="white"/>
<path d="M164.574 171.216C161.716 171.216 159.412 170.427 157.662 168.848C155.956 167.227 155.102 164.987 155.102 162.128C155.102 161.488 155.145 160.848 155.23 160.208C155.316 159.568 155.465 158.907 155.678 158.224L172.638 102.48C173.62 99.0241 175.39 96.1868 177.95 93.9681C180.553 91.7495 183.476 90.6401 186.718 90.6401H194.014C197.257 90.6401 200.158 91.7495 202.718 93.9681C205.278 96.1868 207.049 99.0241 208.03 102.48L224.99 158.224C225.204 158.907 225.353 159.568 225.438 160.208C225.524 160.848 225.566 161.488 225.566 162.128C225.566 165.029 224.692 167.269 222.942 168.848C221.236 170.427 218.953 171.216 216.094 171.216C212.596 171.216 209.993 170.341 208.286 168.592C206.622 166.843 205.385 164.219 204.574 160.72L202.206 152.528H178.462L176.094 160.72C175.284 164.219 174.025 166.843 172.318 168.592C170.654 170.341 168.073 171.216 164.574 171.216ZM181.982 137.616H198.75L191.518 110.352C191.305 109.371 191.092 108.453 190.878 107.6C190.708 106.747 190.537 105.979 190.366 105.296C190.196 105.979 190.004 106.747 189.79 107.6C189.577 108.453 189.364 109.371 189.15 110.352L181.982 137.616Z" fill="white"/>
<path d="M284.72 128.08C285.403 128.08 286.726 128.315 288.688 128.784C290.694 129.211 292.827 130.085 295.088 131.408C297.392 132.731 299.355 134.693 300.976 137.296C302.597 139.899 303.408 143.312 303.408 147.536C303.408 152.571 302.192 156.752 299.76 160.08C297.371 163.408 294.021 165.904 289.712 167.568C285.403 169.189 280.368 170 274.608 170H250.288C242.48 170 238.576 166.075 238.576 158.224V102.544C238.576 94.6935 242.48 90.7681 250.288 90.7681H271.024C276.016 90.7681 280.752 91.3228 285.232 92.4321C289.755 93.5415 293.424 95.4828 296.24 98.2561C299.056 101.029 300.464 104.997 300.464 110.16C300.464 114.043 299.782 117.179 298.416 119.568C297.051 121.957 295.43 123.771 293.552 125.008C291.675 126.203 289.883 127.013 288.176 127.44C286.512 127.867 285.36 128.08 284.72 128.08ZM259.568 105.68V122.768H268.08C270.086 122.768 271.984 122.512 273.776 122C275.568 121.445 277.04 120.528 278.192 119.248C279.344 117.968 279.92 116.197 279.92 113.936C279.92 111.504 279.323 109.712 278.128 108.56C276.976 107.365 275.461 106.597 273.584 106.256C271.707 105.872 269.702 105.68 267.568 105.68H259.568ZM268.208 155.088C272.261 155.088 275.59 154.405 278.192 153.04C280.795 151.632 282.096 149.093 282.096 145.424C282.096 141.669 280.774 139.173 278.128 137.936C275.483 136.656 272.368 136.016 268.784 136.016H259.568V155.088H268.208Z" fill="white"/>
<path d="M323.074 171.216C320.215 171.216 317.912 170.427 316.162 168.848C314.456 167.227 313.602 164.987 313.602 162.128C313.602 161.488 313.645 160.848 313.73 160.208C313.815 159.568 313.965 158.907 314.178 158.224L331.138 102.48C332.12 99.0241 333.89 96.1868 336.45 93.9681C339.053 91.7495 341.976 90.6401 345.218 90.6401H352.514C355.757 90.6401 358.658 91.7495 361.218 93.9681C363.778 96.1868 365.549 99.0241 366.53 102.48L383.49 158.224C383.704 158.907 383.853 159.568 383.938 160.208C384.024 160.848 384.066 161.488 384.066 162.128C384.066 165.029 383.192 167.269 381.442 168.848C379.736 170.427 377.453 171.216 374.594 171.216C371.096 171.216 368.493 170.341 366.786 168.592C365.122 166.843 363.885 164.219 363.074 160.72L360.706 152.528H336.962L334.594 160.72C333.784 164.219 332.525 166.843 330.818 168.592C329.154 170.341 326.573 171.216 323.074 171.216ZM340.482 137.616H357.25L350.018 110.352C349.805 109.371 349.592 108.453 349.378 107.6C349.208 106.747 349.037 105.979 348.866 105.296C348.696 105.979 348.503 106.747 348.29 107.6C348.077 108.453 347.864 109.371 347.65 110.352L340.482 137.616Z" fill="white"/>
<path d="M417.684 105.68V124.56H428.18C431.807 124.56 434.537 123.771 436.372 122.192C438.207 120.571 439.124 118.16 439.124 114.96C439.124 111.803 438.228 109.477 436.436 107.984C434.644 106.448 431.892 105.68 428.18 105.68H417.684ZM396.692 159.376V102.544C396.692 94.6935 400.596 90.7681 408.404 90.7681H432.02C434.708 90.7681 437.652 91.0241 440.852 91.5361C444.052 92.0055 447.124 93.0295 450.068 94.6081C453.012 96.1441 455.423 98.4481 457.3 101.52C459.178 104.592 460.116 108.709 460.116 113.872C460.116 119.12 459.028 123.408 456.852 126.736C454.676 130.021 452.01 132.56 448.852 134.352L458.58 157.136C459.007 158.16 459.348 159.184 459.604 160.208C459.86 161.232 459.988 162.192 459.988 163.088C459.988 165.477 459.178 167.419 457.556 168.912C455.935 170.363 453.567 171.088 450.452 171.088C446.698 171.088 444.01 170.192 442.388 168.4C440.767 166.565 439.337 163.984 438.1 160.656L429.78 139.472H417.684V159.376C417.684 167.184 414.164 171.088 407.124 171.088C400.17 171.088 396.692 167.184 396.692 159.376Z" fill="white"/>
</svg>
