<svg width="1720" height="512" viewBox="0 0 1720 512" fill="none" xmlns="http://www.w3.org/2000/svg">
<circle cx="256" cy="256" r="256" fill="url(#paint0_linear_1329_11)"/>
<path fill-rule="evenodd" clip-rule="evenodd" d="M106 270.55V180.85C106 139.45 139.6 106 181 106H331C372.4 106 406 139.45 406 180.85V285.55C406 326.8 372.4 360.25 331 360.25H308.5C303.85 360.25 299.35 362.5 296.5 366.25L274 396.1C264.1 409.3 247.9 409.3 238 396.1L215.5 366.25C213.1 362.95 207.7 360.25 203.5 360.25H181C139.6 360.25 106 326.8 106 285.55V270.55ZM331 207.25H181C174.85 207.25 169.75 202.15 169.75 196C169.75 189.85 174.85 184.75 181 184.75H331C337.15 184.75 342.25 189.85 342.25 196C342.25 202.15 337.15 207.25 331 207.25ZM181 282.25H271C277.15 282.25 282.25 277.15 282.25 271C282.25 264.85 277.15 259.75 271 259.75H181C174.85 259.75 169.75 264.85 169.75 271C169.75 277.15 174.85 282.25 181 282.25Z" fill="white"/>
<path d="M708.92 208C708.92 217.88 707.707 225.767 705.28 231.66C702.853 237.38 699.473 241.367 695.14 243.62C690.98 245.873 685.433 247 678.5 247C668.273 247 660.82 244.313 656.14 238.94C651.633 233.393 649.293 223.687 649.12 209.82L648.6 113.88H626.5C615.58 113.88 607.347 112.147 601.8 108.68C596.427 105.213 593.74 99.06 593.74 90.22C593.74 84.8467 594.78 80.6 596.86 77.48C599.113 74.36 602.407 72.1933 606.74 70.98C611.073 69.5933 616.88 68.9 624.16 68.9H735.44C745.147 68.9 752.167 70.6333 756.5 74.1C760.833 77.5667 763 83.5467 763 92.04C763 97.76 761.7 102.267 759.1 105.56C756.673 108.68 753.38 110.847 749.22 112.06C745.06 113.273 739.687 113.88 733.1 113.88H708.92V208ZM850.291 111.28C842.838 111.28 837.291 113.447 833.651 117.78C830.184 122.113 828.451 129.827 828.451 140.92V171.6H871.611V140.4C871.611 133.12 870.744 127.313 869.011 122.98C867.278 118.473 864.851 115.44 861.731 113.88C858.784 112.147 854.971 111.28 850.291 111.28ZM871.611 207.48H828.451V221.26C828.451 230.1 826.111 236.6 821.431 240.76C816.751 244.92 808.691 247 797.251 247C792.398 247 788.411 246.307 785.291 244.92C782.171 243.533 779.398 241.193 776.971 237.9C774.718 234.607 772.984 229.84 771.771 223.6C770.731 217.187 769.864 209.56 769.171 200.72C768.651 191.707 768.391 180.353 768.391 166.66C768.391 154.7 769.604 143.78 772.031 133.9C774.631 123.847 778.011 115.353 782.171 108.42C786.504 101.487 791.358 95.42 796.731 90.22C802.104 84.8467 807.911 80.6867 814.151 77.74C820.564 74.7933 826.718 72.6267 832.611 71.24C838.678 69.68 844.744 68.9 850.811 68.9C858.091 68.9 865.284 69.94 872.391 72.02C879.498 73.9267 886.691 77.3067 893.971 82.16C901.251 87.0133 907.578 93.08 912.951 100.36C918.498 107.467 923.004 116.74 926.471 128.18C929.938 139.62 931.671 152.447 931.671 166.66C931.671 189.54 930.804 206.527 929.071 217.62C927.511 228.54 924.738 236.167 920.751 240.5C916.938 244.833 910.958 247 902.811 247C891.371 247 883.311 244.92 878.631 240.76C873.951 236.6 871.611 230.1 871.611 221.26V207.48ZM1035.39 111.28C1027.94 111.28 1022.39 113.447 1018.75 117.78C1015.28 122.113 1013.55 129.827 1013.55 140.92V171.6H1056.71V140.4C1056.71 133.12 1055.84 127.313 1054.11 122.98C1052.38 118.473 1049.95 115.44 1046.83 113.88C1043.88 112.147 1040.07 111.28 1035.39 111.28ZM1056.71 207.48H1013.55V221.26C1013.55 230.1 1011.21 236.6 1006.53 240.76C1001.85 244.92 993.789 247 982.349 247C977.495 247 973.509 246.307 970.389 244.92C967.269 243.533 964.495 241.193 962.069 237.9C959.815 234.607 958.082 229.84 956.869 223.6C955.829 217.187 954.962 209.56 954.269 200.72C953.749 191.707 953.489 180.353 953.489 166.66C953.489 154.7 954.702 143.78 957.129 133.9C959.729 123.847 963.109 115.353 967.269 108.42C971.602 101.487 976.455 95.42 981.829 90.22C987.202 84.8467 993.009 80.6867 999.249 77.74C1005.66 74.7933 1011.82 72.6267 1017.71 71.24C1023.78 69.68 1029.84 68.9 1035.91 68.9C1043.19 68.9 1050.38 69.94 1057.49 72.02C1064.6 73.9267 1071.79 77.3067 1079.07 82.16C1086.35 87.0133 1092.68 93.08 1098.05 100.36C1103.6 107.467 1108.1 116.74 1111.57 128.18C1115.04 139.62 1116.77 152.447 1116.77 166.66C1116.77 189.54 1115.9 206.527 1114.17 217.62C1112.61 228.54 1109.84 236.167 1105.85 240.5C1102.04 244.833 1096.06 247 1087.91 247C1076.47 247 1068.41 244.92 1063.73 240.76C1059.05 236.6 1056.71 230.1 1056.71 221.26V207.48ZM1278.07 204.88C1283.27 204.88 1287.6 205.313 1291.07 206.18C1294.53 206.873 1297.22 208.173 1299.13 210.08C1301.21 211.813 1302.59 213.893 1303.29 216.32C1304.15 218.747 1304.59 221.78 1304.59 225.42C1304.59 234.26 1301.81 240.067 1296.27 242.84C1290.72 245.613 1281.1 247 1267.41 247H1169.91C1165.05 247 1160.11 245.613 1155.09 242.84C1150.23 239.893 1146.16 235.907 1142.87 230.88C1139.57 225.68 1137.93 220.22 1137.93 214.5C1137.93 209.3 1138.19 205.053 1138.71 201.76C1139.4 198.293 1140.87 194.74 1143.13 191.1C1145.38 187.46 1147.37 184.6 1149.11 182.52C1151.01 180.267 1154.39 176.627 1159.25 171.6L1225.55 111.28H1172.77C1161.15 111.28 1152.75 109.633 1147.55 106.34C1142.35 102.873 1139.75 97.1533 1139.75 89.18C1139.75 81.7267 1141.83 76.5267 1145.99 73.58C1150.32 70.46 1156.65 68.9 1164.97 68.9H1271.31C1276.51 68.9 1281.1 69.8533 1285.09 71.76C1289.07 73.4933 1292.11 75.8333 1294.19 78.78C1296.27 81.5533 1297.83 84.3267 1298.87 87.1C1299.91 89.8733 1300.43 92.4733 1300.43 94.9C1300.43 98.02 1300.34 100.793 1300.17 103.22C1299.99 105.647 1299.47 107.987 1298.61 110.24C1297.91 112.32 1297.39 113.967 1297.05 115.18C1296.7 116.393 1295.66 118.04 1293.93 120.12C1292.37 122.2 1291.24 123.587 1290.55 124.28C1289.85 124.973 1288.21 126.707 1285.61 129.48C1283.01 132.08 1281.19 133.9 1280.15 134.94L1204.23 204.88H1278.07ZM1407.11 111.28C1399.65 111.28 1394.11 113.447 1390.47 117.78C1387 122.113 1385.27 129.827 1385.27 140.92V171.6H1428.43V140.4C1428.43 133.12 1427.56 127.313 1425.83 122.98C1424.09 118.473 1421.67 115.44 1418.55 113.88C1415.6 112.147 1411.79 111.28 1407.11 111.28ZM1428.43 207.48H1385.27V221.26C1385.27 230.1 1382.93 236.6 1378.25 240.76C1373.57 244.92 1365.51 247 1354.07 247C1349.21 247 1345.23 246.307 1342.11 244.92C1338.99 243.533 1336.21 241.193 1333.79 237.9C1331.53 234.607 1329.8 229.84 1328.59 223.6C1327.55 217.187 1326.68 209.56 1325.99 200.72C1325.47 191.707 1325.21 180.353 1325.21 166.66C1325.21 154.7 1326.42 143.78 1328.85 133.9C1331.45 123.847 1334.83 115.353 1338.99 108.42C1343.32 101.487 1348.17 95.42 1353.55 90.22C1358.92 84.8467 1364.73 80.6867 1370.97 77.74C1377.38 74.7933 1383.53 72.6267 1389.43 71.24C1395.49 69.68 1401.56 68.9 1407.63 68.9C1414.91 68.9 1422.1 69.94 1429.21 72.02C1436.31 73.9267 1443.51 77.3067 1450.79 82.16C1458.07 87.0133 1464.39 93.08 1469.77 100.36C1475.31 107.467 1479.82 116.74 1483.29 128.18C1486.75 139.62 1488.49 152.447 1488.49 166.66C1488.49 189.54 1487.62 206.527 1485.89 217.62C1484.33 228.54 1481.55 236.167 1477.57 240.5C1473.75 244.833 1467.77 247 1459.63 247C1448.19 247 1440.13 244.92 1435.45 240.76C1430.77 236.6 1428.43 230.1 1428.43 221.26V207.48ZM718.54 375.46C727.38 376.5 735.44 381.007 742.72 388.98C750 396.78 753.64 406.833 753.64 419.14C753.64 431.1 752.773 440.027 751.04 445.92C749.307 451.64 746.36 455.627 742.2 457.88C738.04 459.96 731.713 461 723.22 461C716.46 461 710.827 460.047 706.32 458.14C701.987 456.233 698.78 453.46 696.7 449.82C694.62 446.007 693.58 441.153 693.58 435.26C693.58 427.633 693.233 421.307 692.54 416.28C692.02 411.08 691.24 407.007 690.2 404.06C689.333 400.94 687.947 398.6 686.04 397.04C684.133 395.48 682.227 394.527 680.32 394.18C678.587 393.66 676.16 393.4 673.04 393.4H659.26V422.26C659.26 436.127 656.573 446.093 651.2 452.16C645.827 458.053 637.94 461 627.54 461C617.487 461 610.033 458.227 605.18 452.68C600.5 446.96 598.16 437.427 598.16 424.08V315.66C598.16 304.74 600.153 296.593 604.14 291.22C608.3 285.673 614.973 282.9 624.16 282.9C629.533 282.9 633.953 283.247 637.42 283.94C641.06 284.633 644.527 285.933 647.82 287.84C651.287 289.573 653.8 292.433 655.36 296.42C657.093 300.233 657.96 305.173 657.96 311.24C657.96 316.613 657.873 322.68 657.7 329.44C657.7 336.027 657.7 340.707 657.7 343.48C657.7 345.733 658.22 347.64 659.26 349.2C660.473 350.76 662.207 352.06 664.46 353.1C666.887 353.967 669.833 354.4 673.3 354.4C680.753 354.4 685.693 351.453 688.12 345.56C690.72 339.667 692.02 327.62 692.02 309.42C692.02 300.407 694.447 293.733 699.3 289.4C704.153 285.067 711.953 282.9 722.7 282.9C734.313 282.9 742.113 285.153 746.1 289.66C750.087 294.167 752.08 302.227 752.08 313.84C752.08 332.907 748.7 347.727 741.94 358.3C735.353 368.7 727.553 374.42 718.54 375.46ZM956.363 422C956.363 436.04 953.849 446.093 948.823 452.16C943.796 458.053 936.169 461 925.943 461C915.889 461 908.523 458.313 903.843 452.94C899.163 447.393 896.823 437.687 896.823 423.82L896.563 394.44H843.523V422C843.523 436.213 841.096 446.267 836.243 452.16C831.389 458.053 823.676 461 813.103 461C803.049 461 795.683 458.313 791.003 452.94C786.323 447.393 783.983 437.687 783.983 423.82L783.203 314.1C783.203 303.353 785.889 295.467 791.263 290.44C796.809 285.413 804.089 282.9 813.103 282.9C823.503 282.9 831.129 284.807 835.983 288.62C841.009 292.433 843.523 300.147 843.523 311.76V355.44H896.303V314.1C896.303 306.82 897.603 300.84 900.203 296.16C902.976 291.307 906.443 287.927 910.603 286.02C914.936 283.94 920.049 282.9 925.943 282.9C935.996 282.9 943.536 284.807 948.563 288.62C953.763 292.433 956.363 300.147 956.363 311.76V422ZM1064.33 325.28C1056.88 325.28 1051.33 327.447 1047.69 331.78C1044.23 336.113 1042.49 343.827 1042.49 354.92V385.6H1085.65V354.4C1085.65 347.12 1084.79 341.313 1083.05 336.98C1081.32 332.473 1078.89 329.44 1075.77 327.88C1072.83 326.147 1069.01 325.28 1064.33 325.28ZM1085.65 421.48H1042.49V435.26C1042.49 444.1 1040.15 450.6 1035.47 454.76C1030.79 458.92 1022.73 461 1011.29 461C1006.44 461 1002.45 460.307 999.334 458.92C996.214 457.533 993.441 455.193 991.014 451.9C988.761 448.607 987.027 443.84 985.814 437.6C984.774 431.187 983.907 423.56 983.214 414.72C982.694 405.707 982.434 394.353 982.434 380.66C982.434 368.7 983.647 357.78 986.074 347.9C988.674 337.847 992.054 329.353 996.214 322.42C1000.55 315.487 1005.4 309.42 1010.77 304.22C1016.15 298.847 1021.95 294.687 1028.19 291.74C1034.61 288.793 1040.76 286.627 1046.65 285.24C1052.72 283.68 1058.79 282.9 1064.85 282.9C1072.13 282.9 1079.33 283.94 1086.43 286.02C1093.54 287.927 1100.73 291.307 1108.01 296.16C1115.29 301.013 1121.62 307.08 1126.99 314.36C1132.54 321.467 1137.05 330.74 1140.51 342.18C1143.98 353.62 1145.71 366.447 1145.71 380.66C1145.71 403.54 1144.85 420.527 1143.11 431.62C1141.55 442.54 1138.78 450.167 1134.79 454.5C1130.98 458.833 1125 461 1116.85 461C1105.41 461 1097.35 458.92 1092.67 454.76C1087.99 450.6 1085.65 444.1 1085.65 435.26V421.48ZM1272.05 333.08C1272.05 325.8 1269.19 320.86 1263.47 318.26C1257.92 315.487 1248.56 314.1 1235.39 314.1V353.88C1243.54 353.88 1250.12 353.273 1255.15 352.06C1260.35 350.847 1264.42 348.767 1267.37 345.82C1270.49 342.7 1272.05 338.453 1272.05 333.08ZM1275.43 402.5C1275.43 396.78 1273.96 392.36 1271.01 389.24C1268.06 386.12 1263.82 383.953 1258.27 382.74C1252.72 381.353 1245.1 380.66 1235.39 380.66V425.64C1248.91 425.64 1258.96 423.993 1265.55 420.7C1272.14 417.233 1275.43 411.167 1275.43 402.5ZM1307.41 368.44C1323.53 377.973 1331.59 390.713 1331.59 406.66C1331.59 413.593 1330.2 420.267 1327.43 426.68C1324.83 432.92 1320.84 438.64 1315.47 443.84C1310.27 449.04 1303.34 453.2 1294.67 456.32C1286 459.267 1276.21 460.74 1265.29 460.74H1204.97C1194.4 460.74 1186.77 458.053 1182.09 452.68C1177.58 447.307 1175.33 437.687 1175.33 423.82V313.84C1175.33 307.947 1176.37 302.747 1178.45 298.24C1180.53 293.733 1183.82 290.093 1188.33 287.32C1193.01 284.547 1198.56 283.16 1204.97 283.16H1264.51C1281.84 283.333 1296.23 288.1 1307.67 297.46C1319.28 306.647 1325.09 318.52 1325.09 333.08C1325.09 337.76 1324.66 341.92 1323.79 345.56C1323.1 349.027 1321.97 352.147 1320.41 354.92C1318.85 357.693 1317.03 360.12 1314.95 362.2C1312.87 364.28 1310.36 366.36 1307.41 368.44ZM1440.12 325.28C1432.66 325.28 1427.12 327.447 1423.48 331.78C1420.01 336.113 1418.28 343.827 1418.28 354.92V385.6H1461.44V354.4C1461.44 347.12 1460.57 341.313 1458.84 336.98C1457.1 332.473 1454.68 329.44 1451.56 327.88C1448.61 326.147 1444.8 325.28 1440.12 325.28ZM1461.44 421.48H1418.28V435.26C1418.28 444.1 1415.94 450.6 1411.26 454.76C1406.58 458.92 1398.52 461 1387.08 461C1382.22 461 1378.24 460.307 1375.12 458.92C1372 457.533 1369.22 455.193 1366.8 451.9C1364.54 448.607 1362.81 443.84 1361.6 437.6C1360.56 431.187 1359.69 423.56 1359 414.72C1358.48 405.707 1358.22 394.353 1358.22 380.66C1358.22 368.7 1359.43 357.78 1361.86 347.9C1364.46 337.847 1367.84 329.353 1372 322.42C1376.33 315.487 1381.18 309.42 1386.56 304.22C1391.93 298.847 1397.74 294.687 1403.98 291.74C1410.39 288.793 1416.54 286.627 1422.44 285.24C1428.5 283.68 1434.57 282.9 1440.64 282.9C1447.92 282.9 1455.11 283.94 1462.22 286.02C1469.32 287.927 1476.52 291.307 1483.8 296.16C1491.08 301.013 1497.4 307.08 1502.78 314.36C1508.32 321.467 1512.83 330.74 1516.3 342.18C1519.76 353.62 1521.5 366.447 1521.5 380.66C1521.5 403.54 1520.63 420.527 1518.9 431.62C1517.34 442.54 1514.56 450.167 1510.58 454.5C1506.76 458.833 1500.78 461 1492.64 461C1481.2 461 1473.14 458.92 1468.46 454.76C1463.78 450.6 1461.44 444.1 1461.44 435.26V421.48ZM1647.57 334.64C1647.57 326.32 1644.54 320.6 1638.47 317.48C1632.41 314.36 1622.18 312.8 1607.79 312.8V357.78C1621.31 357.78 1631.28 356.133 1637.69 352.84C1644.28 349.373 1647.57 343.307 1647.57 334.64ZM1607.79 422C1607.79 448 1597.65 461 1577.37 461C1567.15 461 1559.61 458.313 1554.75 452.94C1550.07 447.393 1547.73 437.687 1547.73 423.82V314.1C1547.73 304.047 1550.42 296.42 1555.79 291.22C1561.34 285.847 1568.53 283.16 1577.37 283.16H1631.97C1653.29 283.16 1670.54 288.187 1683.71 298.24C1696.89 308.12 1703.47 320.86 1703.47 336.46C1703.47 348.247 1700.96 357.52 1695.93 364.28C1691.08 370.867 1683.19 375.72 1672.27 378.84C1680.59 379.36 1688.31 383.433 1695.41 391.06C1702.52 398.513 1706.07 407.873 1706.07 419.14C1706.07 430.58 1704.95 439.42 1702.69 445.66C1700.61 451.727 1697.58 455.8 1693.59 457.88C1689.61 459.96 1683.97 461 1676.69 461C1666.47 461 1658.93 458.92 1654.07 454.76C1649.39 450.427 1647.05 443.927 1647.05 435.26C1647.05 424.513 1646.01 416.28 1643.93 410.56C1641.85 404.667 1639.17 400.853 1635.87 399.12C1632.58 397.387 1627.99 396.52 1622.09 396.52L1607.79 396.78V422Z" fill="white"/>
<defs>
<linearGradient id="paint0_linear_1329_11" x1="0" y1="0" x2="512" y2="512" gradientUnits="userSpaceOnUse">
<stop stop-color="#EF4444"/>
<stop offset="0.390625" stop-color="#DB2777"/>
<stop offset="0.947917" stop-color="#8B5CF6"/>
</linearGradient>
</defs>
</svg>
